<?xml version="1.0" standalone="no"?>
<!DOCTYPE svg PUBLIC "-//W3C//DTD SVG 20010904//EN"
 "http://www.w3.org/TR/2001/REC-SVG-20010904/DTD/svg10.dtd">
<svg version="1.0" xmlns="http://www.w3.org/2000/svg"
 width="590.000000pt" height="590.000000pt" viewBox="0 0 590.000000 590.000000"
 preserveAspectRatio="xMidYMid meet">
<metadata>
Created by potrace 1.14, written by Peter Selinger 2001-2017
</metadata>
<g transform="translate(0.000000,590.000000) scale(0.100000,-0.100000)"
fill="#000000" stroke="none">
<path d="M4618 5589 c-238 -16 -455 -54 -723 -128 -206 -57 -376 -142 -625
-312 -173 -119 -250 -187 -355 -317 -268 -327 -379 -579 -454 -1032 -34 -200
-51 -389 -57 -635 -7 -254 0 -358 43 -611 l26 -161 111 -6 c283 -16 544 -19
646 -8 416 48 650 103 955 223 291 115 575 308 822 559 137 140 215 236 332
411 160 240 241 422 336 751 102 356 133 573 159 1114 l5 102 -42 6 c-23 3
-188 16 -366 30 -331 26 -581 30 -813 14z"/>
<path d="M2084 5296 c-154 -57 -259 -186 -287 -352 -40 -234 135 -469 373
-503 63 -8 166 -1 191 15 8 5 9 3 4 -6 -10 -17 26 -5 89 29 96 51 168 139 207
253 18 52 20 79 17 158 -4 82 -10 105 -40 170 -54 117 -146 200 -266 241 -79
27 -207 25 -288 -5z"/>
<path d="M275 4840 c-82 -4 -177 -8 -209 -9 -33 0 -57 -3 -55 -6 3 -2 84 -21
180 -40 231 -48 410 -109 585 -201 246 -129 343 -200 659 -485 368 -332 530
-558 644 -899 18 -52 61 -239 97 -414 35 -176 66 -321 69 -324 5 -5 8 10 29
113 32 159 38 263 33 552 -6 346 -26 502 -88 688 -48 144 -104 252 -205 396
-79 112 -148 181 -298 293 -144 109 -257 169 -401 214 -249 78 -386 104 -635
122 -154 10 -170 10 -405 0z"/>
<path d="M1710 2229 c-441 -35 -735 -146 -1027 -390 -124 -105 -268 -273 -348
-411 -82 -139 -179 -410 -220 -611 -26 -131 -62 -424 -52 -433 3 -3 97 -19
209 -35 199 -29 210 -30 533 -26 296 3 341 6 435 26 124 26 181 47 312 113
195 99 304 184 420 328 72 89 98 129 149 230 120 242 197 754 158 1050 -7 47
-11 95 -10 107 0 18 -6 23 -42 28 -75 10 -359 35 -386 34 -14 -1 -73 -5 -131
-10z"/>
<path d="M2391 2187 c-45 -114 -71 -414 -52 -614 19 -192 63 -318 161 -463 73
-108 258 -259 385 -315 191 -85 411 -125 710 -131 121 -2 216 -2 210 1 -5 2
-64 18 -130 35 -211 54 -398 142 -560 264 -110 83 -354 315 -425 405 -87 109
-152 223 -185 325 -15 46 -44 182 -65 302 -33 192 -39 216 -49 191z"/>
</g>
</svg>
